<svg width="24" height="24" viewBox="0 0 24 24" fill="none" xmlns="http://www.w3.org/2000/svg">
<g filter="url(#filter0_d_1_129)">
<path d="M10.1468 2.56633C10.8221 0.902466 13.1779 0.902467 13.8532 2.56633L15.1771 5.82848C15.4638 6.53493 16.1272 7.01692 16.8877 7.07129L20.3993 7.32234C22.1904 7.45039 22.9184 9.69096 21.5446 10.8473L18.8512 13.1145C18.268 13.6055 18.0146 14.3854 18.1979 15.1254L19.0442 18.5427C19.4759 20.2857 17.57 21.6705 16.0457 20.7213L13.0572 18.8603C12.41 18.4573 11.59 18.4573 10.9428 18.8603L7.9543 20.7213C6.43 21.6705 4.52406 20.2857 4.95576 18.5427L5.80214 15.1254C5.98543 14.3854 5.73203 13.6055 5.14876 13.1145L2.45538 10.8473C1.08162 9.69096 1.80962 7.45039 3.60072 7.32234L7.11232 7.07129C7.87278 7.01692 8.53619 6.53493 8.82289 5.82848L10.1468 2.56633Z" fill="#F6EDD5"/>
<path d="M15.6404 5.64046L14.3165 2.37831C13.4724 0.298476 10.5276 0.298474 9.6835 2.37831L8.35959 5.64046C8.14457 6.17029 7.64701 6.53179 7.07666 6.57256L3.56506 6.82361C1.32619 6.98368 0.416185 9.78438 2.13339 11.2299L4.82677 13.497C5.26422 13.8653 5.45427 14.4502 5.3168 15.0052L4.47042 18.4225C3.9308 20.6013 6.31323 22.3322 8.21859 21.1457L11.2071 19.2848C11.6925 18.9825 12.3075 18.9825 12.7929 19.2848L15.7814 21.1457C17.6868 22.3322 20.0692 20.6013 19.5296 18.4225L18.6832 15.0052C18.5457 14.4502 18.7358 13.8653 19.1732 13.497L21.8666 11.2299C23.5838 9.78438 22.6738 6.98368 20.4349 6.82361L16.9233 6.57256C16.353 6.53179 15.8554 6.17029 15.6404 5.64046Z" stroke="#322E1B"/>
</g>
<defs>
<filter id="filter0_d_1_129" x="0.738892" y="0.318359" width="23.0222" height="22.7148" filterUnits="userSpaceOnUse" color-interpolation-filters="sRGB">
<feFlood flood-opacity="0" result="BackgroundImageFix"/>
<feColorMatrix in="SourceAlpha" type="matrix" values="0 0 0 0 0 0 0 0 0 0 0 0 0 0 0 0 0 0 127 0" result="hardAlpha"/>
<feOffset dx="0.5" dy="1"/>
<feComposite in2="hardAlpha" operator="out"/>
<feColorMatrix type="matrix" values="0 0 0 0 0.196078 0 0 0 0 0.180392 0 0 0 0 0.105882 0 0 0 1 0"/>
<feBlend mode="normal" in2="BackgroundImageFix" result="effect1_dropShadow_1_129"/>
<feBlend mode="normal" in="SourceGraphic" in2="effect1_dropShadow_1_129" result="shape"/>
</filter>
</defs>
</svg>
